<?xml version="1.0" encoding="utf-8"?>
<!-- Generator: Adobe Illustrator 16.0.0, SVG Export Plug-In . SVG Version: 6.00 Build 0)  -->
<!DOCTYPE svg PUBLIC "-//W3C//DTD SVG 1.1//EN" "http://www.w3.org/Graphics/SVG/1.1/DTD/svg11.dtd">
<svg version="1.1" id="图层_1" xmlns="http://www.w3.org/2000/svg" xmlns:xlink="http://www.w3.org/1999/xlink" x="0px" y="0px"
	 width="500px" height="160px" viewBox="0 0 1500 1080" enable-background="new 0 0 1500 1080" xml:space="preserve">
<g>
	<path fill="#FFFFFF" d="M659.382,430.742c0-15.426-12.513-27.964-27.939-27.964h-38.818h-38.527h-22.315h-77.37v38.198h77.37
		v53.472v152.461h50.229v-180.4v-25.533h77.37V430.742z"/>
	<path fill="#FFFFFF" d="M397.344,402.778h-3.964h-18.326h-30.902h-7.029l-159.237,244.13h56.258l134.321-205.933h6.589v53.472
		v152.461h50.229v-180.4v-35.792C425.283,415.316,412.77,402.778,397.344,402.778z"/>
	<path fill="#FFFFFF" d="M1294.188,402.778h-0.013h-3.95h-18.339h-30.916h-7.003l-159.262,244.13h56.269l134.334-205.933h6.578
		v74.596v131.336h50.229V487.633v-56.917C1322.114,415.316,1309.601,402.778,1294.188,402.778z"/>
	<path fill="#EDAE00" d="M907.299,608.584c0,32.244-26.166,58.36-58.335,58.36c-32.271,0-58.36-26.116-58.36-58.36
		c0-32.22,26.09-58.335,58.36-58.335C881.133,550.249,907.299,576.364,907.299,608.584z"/>
	<path fill="#FFFFFF" d="M1100.287,402.778h-38.805h-3.951c-7.611,14.489-16.174,27.788-24.836,40.199
		c-10.488,14.996-21.418,28.446-32.056,40.756v31.839v131.336h50.229V487.633v-46.658h77.371v-10.233
		C1128.239,415.316,1115.713,402.778,1100.287,402.778z"/>
	<g>
		<path fill="#EDAE00" d="M521.195,544.955c0,0-6.586,8.08-17.642,22.442c-11.032,14.388-26.559,35.132-42.719,61.374
			c-8.03,13.096-16.059,27.686-23.177,43.542c-6.965,15.832-12.956,33.359-14.438,51.217c-0.721,8.866,0.115,17.757,3.027,25.66
			c0.836,1.925,1.608,3.876,2.685,5.623c0.456,0.937,1.013,1.799,1.634,2.634l0.861,1.293l0.241,0.303l0.088,0.177
			c-0.127-0.177,0.43,0.558-0.253-0.328l0.633,0.734l2.482,2.862l1.241,1.394l1.089,0.886c1.419,1.19,2.698,2.457,4.648,3.622
			c14.337,9.677,34.639,11.628,54.143,10.74c19.783-0.988,39.743-4.686,59.044-9.854c19.301-5.218,38.198-11.196,56.156-18.06
			c35.931-13.628,68.645-28.928,96.254-42.935c13.805-7.017,26.343-13.703,37.438-19.732c11.019-6.079,20.694-11.398,28.521-15.932
			c15.768-9.068,24.772-14.261,24.772-14.261s-2.077,1.569-5.927,4.559c-3.876,2.964-9.461,7.422-16.87,12.716
			c-7.346,5.396-16.351,11.804-26.925,18.846c-10.538,7.066-22.506,14.92-35.981,22.873c-13.399,8.08-28.128,16.565-44.15,24.697
			c-15.971,8.231-33.068,16.514-51.281,23.961c-18.212,7.473-37.336,14.692-57.46,20.138c-20.074,5.547-41.047,9.777-62.73,11.043
			c-10.866,0.381-21.91,0-32.954-1.975c-10.98-2.002-22.164-5.675-31.954-12.463c-2.432-1.52-4.876-3.698-7.245-5.927l-1.748-1.646
			l-1.267-1.469l-2.431-2.913l-0.596-0.735c-0.81-0.987-0.317-0.404-0.532-0.684l-0.165-0.228l-0.292-0.481l-1.229-1.874
			c-0.836-1.242-1.596-2.534-2.229-3.851c-1.444-2.635-2.495-5.345-3.521-8.08c-3.698-11.069-4.167-22.341-3.027-32.777
			c2.254-20.998,9.967-39.211,18.085-55.523c8.195-16.337,17.541-30.725,26.71-43.517c18.327-25.634,36.019-44.859,48.621-57.979
			c6.282-6.586,11.474-11.552,14.97-14.919C519.321,546.754,521.195,544.955,521.195,544.955z"/>
		<path fill="#EDAE00" d="M919.786,559.367c0,0,8.436-8.485,22.747-23.683c14.261-15.224,34.398-37.184,56.422-65.148
			c10.955-13.982,22.354-29.509,33.321-46.48c10.893-17.021,21.379-35.639,29.332-55.701c3.927-10.031,7.143-20.466,8.79-31.029
			c0.708-5.268,1.24-10.562,0.874-15.704c-0.141-5.167-1.001-10.158-2.622-14.768c-1.521-4.661-3.901-8.967-7.117-12.462
			c-0.938-0.987-2.027-2.508-2.862-3.065l-2.509-2.077c-1.595-1.419-4.053-2.685-6.078-4.028
			c-8.968-4.736-19.783-7.041-30.853-7.801c-22.291-1.672-45.543,2.204-67.783,7.573c-22.276,5.624-43.984,12.69-64.591,20.745
			c-41.225,16.009-78.396,34.778-109.717,51.724c-15.565,8.664-29.826,16.692-42.288,24.165
			c-12.437,7.447-23.253,14.058-32.067,19.656c-8.802,5.623-15.717,10.005-20.442,13.044c-4.711,3.015-7.244,4.61-7.244,4.61
			s2.331-1.849,6.674-5.396c4.37-3.546,10.69-8.789,19.036-15.096c8.308-6.383,18.465-14.058,30.434-22.417
			c11.893-8.46,25.596-17.629,40.845-27.179c15.248-9.575,32.055-19.504,50.305-29.205c18.237-9.752,37.817-19.454,58.74-28.142
			c20.897-8.638,42.935-16.92,66.237-22.822c23.279-5.75,47.696-10.284,73.165-8.612c12.652,1.013,25.724,3.672,37.793,10.183
			c2.926,1.9,5.788,3.419,8.676,5.876l4.205,3.75c1.469,1.292,2.076,2.305,3.153,3.445c4.724,5.294,8.093,11.601,10.183,18.11
			c4.484,13.071,3.837,26.419,1.812,38.501c-2.242,12.184-6.08,23.506-10.576,34.196c-8.991,21.404-20.859,40.123-32.763,57.144
			c-11.919,17.073-24.47,32.144-36.426,45.67c-23.936,27.002-45.999,47.342-61.665,61.223c-7.841,6.941-14.198,12.183-18.504,15.755
			C922.091,557.493,919.786,559.367,919.786,559.367z"/>
	</g>
	<path fill="#FFFFFF" d="M1020.827,422.282c4.003-6.231,7.903-12.792,11.702-19.504h-9.586h-22.304h-77.371v38.198h77.371v10.461
		C1007.403,442.242,1014.178,432.566,1020.827,422.282z"/>
	<path fill="#FFFFFF" d="M774.114,608.584c0-2.609,0.151-5.219,0.405-7.776c-41.022-7.878-72.038-43.897-72.038-87.211
		c0-49.063,39.768-88.832,88.857-88.832c49.038,0,88.819,39.768,88.819,88.832c0,8.866-1.482,17.326-3.952,25.356
		c14.501,5.698,26.812,15.729,35.246,28.546c7.512-16.438,11.816-34.625,11.816-53.902c0-72.874-59.068-131.943-131.93-131.943
		c-72.875,0-131.957,59.069-131.957,131.943c0,70.291,55.004,127.562,124.293,131.564
		C777.609,634.344,774.114,621.882,774.114,608.584z"/>
</g>
</svg>
